<?xml version="1.0" encoding="utf-8"?>
<!-- Generator: Adobe Illustrator 13.0.0, SVG Export Plug-In . SVG Version: 6.00 Build 14948)  -->
<!DOCTYPE svg PUBLIC "-//W3C//DTD SVG 1.1//EN" "http://www.w3.org/Graphics/SVG/1.1/DTD/svg11.dtd">
<svg version="1.1" id="Calque_1" xmlns="http://www.w3.org/2000/svg" xmlns:xlink="http://www.w3.org/1999/xlink" x="0px" y="0px"
	 width="39px" height="18.8px" viewBox="0 0 39 18.8" enable-background="new 0 0 39 18.8" xml:space="preserve">
<g id="Calque_1_1_">
	<rect x="-0.167" y="-0.35" fill="none" width="40" height="20"/>
</g>
<g id="Calque_2">
	<path d="M19.664,17.07l0.5-0.003c0,0,2.499-0.012,4.086-0.012l0,0c0-0.004,0.15-0.035,0.373-0.231l0,0
		c0.225-0.188,0.502-0.485,0.806-0.853l0,0c0.609-0.733,1.32-1.741,2.062-2.757l0,0c1.539-2.014,2.963-4.14,4.675-4.253l0,0
		c2.417,0,5.5,0,5.5,0.002l0,0h0.5v0.999h-0.5c0,0-3.083,0-5.5,0l0,0c-0.498-0.067-1.679,0.952-2.757,2.37l0,0
		c-1.11,1.401-2.239,3.104-3.21,4.277l0,0c-0.678,0.765-1.147,1.379-1.949,1.444l0,0c-1.583,0-4.078,0.013-4.082,0.013l0,0h0.002
		l-0.5,0.004L19.664,17.07L19.664,17.07z"/>
</g>
<g id="Calque_2_1_">
	<path d="M19.664,18.067c-0.004,0-2.498-0.013-4.081-0.013l0,0c-0.801-0.065-1.272-0.681-1.949-1.444l0,0
		c-0.648-0.784-1.362-1.799-2.099-2.807l0,0C10.113,11.77,8.372,9.85,7.666,9.962l0,0c-1.208,0-2.583,0-3.655,0l0,0
		c-1.074,0-1.842,0-1.844,0l0,0h-0.5v-1h0.5c0.006,0,3.083,0,5.499,0l0,0c1.517,0.088,2.749,1.75,4.112,3.49l0,0
		c1.313,1.754,2.62,3.702,3.431,4.371l0,0c0.222,0.195,0.368,0.237,0.375,0.232l0,0c1.586,0,4.085,0.011,4.087,0.013l0,0
		l0.498,0.002l-0.007,0.998L19.664,18.067L19.664,18.067z"/>
</g>
<g id="Calque_2_3_">
	<path d="M37.666,9.962c0,0-3.083,0-5.5,0l0,0c-1.517-0.09-2.749-1.751-4.112-3.49l0,0c-1.311-1.753-2.619-3.703-3.431-4.371l0,0
		C24.4,1.907,24.256,1.863,24.25,1.87l0,0c-1.587,0-4.086-0.01-4.086-0.01l0,0l-0.499-0.002l0.004-1.001l0.499,0.002
		c0.004,0,2.499,0.012,4.082,0.012l0,0c0.802,0.068,1.271,0.682,1.949,1.446l0,0c0.648,0.783,1.364,1.797,2.1,2.805l0,0
		c1.42,2.034,3.163,3.954,3.867,3.84l0,0c2.417,0,5.5,0,5.5,0l0,0v0.002h0.5v0.999H37.666L37.666,9.962z"/>
</g>
<g id="Calque_2_2_">
	<path d="M4.009,9.962c-1.073,0-1.842,0-1.842,0l0,0H1.666V8.963h0.502c0.004,0,3.082,0,5.5,0l0,0
		c0.498,0.065,1.678-0.954,2.757-2.373l0,0c1.11-1.398,2.241-3.103,3.209-4.274l0,0c0.677-0.765,1.149-1.377,1.951-1.445l0,0
		c1.581,0,4.075-0.013,4.079-0.013l0,0l0.5-0.002l0.006,0.999L19.67,1.858c-0.002,0-2.5,0.012-4.085,0.012l0,0
		c-0.002,0.004-0.154,0.035-0.376,0.23l0,0c-0.224,0.189-0.502,0.487-0.804,0.853l0,0c-0.608,0.734-1.322,1.744-2.064,2.759l0,0
		c-1.538,2.011-2.96,4.136-4.673,4.25l0,0C6.458,9.962,5.083,9.962,4.009,9.962L4.009,9.962z"/>
</g>
</svg>
