<?xml version="1.0" encoding="utf-8"?>
<!-- Generator: Adobe Illustrator 13.0.0, SVG Export Plug-In . SVG Version: 6.00 Build 14948)  -->
<!DOCTYPE svg PUBLIC "-//W3C//DTD SVG 1.1//EN" "http://www.w3.org/Graphics/SVG/1.1/DTD/svg11.dtd">
<svg version="1.1" id="Calque_1" xmlns="http://www.w3.org/2000/svg" xmlns:xlink="http://www.w3.org/1999/xlink" x="0px" y="0px"
	 width="39px" height="18.8px" viewBox="0 0 39 18.8" enable-background="new 0 0 39 18.8" xml:space="preserve">
<g id="Calque_1_1_">
	<rect x="-0.167" y="-0.35" fill="none" width="40" height="20"/>
</g>
<g id="Calque_2">
	<path d="M36.665,18.068c-0.011,0-9.5-0.012-11.082-0.012l0,0c-0.771-0.06-1.354-0.639-2.219-1.407l0,0
		c-0.833-0.779-1.799-1.799-2.786-2.814l0,0c-1.919-2.04-4.161-4.013-4.911-3.919l0,0c-2.418,0-13.5,0-13.5,0l0,0v0.002H1.666v-1
		h0.501c0.014,0,11.082,0,13.5,0l0,0c1.284,0.06,2.602,1.281,4.129,2.715l0,0c1.493,1.446,3.053,3.166,4.25,4.287l0,0
		c0.765,0.758,1.496,1.177,1.537,1.138l0,0c1.586,0,11.084,0.012,11.084,0.012l0,0l0.5,0.002l-0.002,0.997H36.665L36.665,18.068z"/>
</g>
<g id="Calque_2_1_">
	<path d="M2.167,9.917h-0.5v-1h0.5c0.012,0,11.082,0,13.499,0l0,0c0.529,0.06,2.007-1.008,3.435-2.436l0,0
		c1.462-1.415,3.016-3.129,4.263-4.297l0,0c0.867-0.769,1.448-1.348,2.221-1.407l0,0c1.582,0,11.071-0.01,11.082-0.01l0,0h0.5v0.999
		h-0.5c0,0-9.498,0.01-11.082,0.01l0,0c-0.041-0.039-0.774,0.381-1.537,1.138l0,0c-0.797,0.748-1.76,1.761-2.75,2.783l0,0
		c-2.04,2.029-3.964,4.126-5.631,4.221l0,0C13.25,9.917,2.167,9.917,2.167,9.917L2.167,9.917z"/>
</g>
</svg>
