<?xml version="1.0" encoding="utf-8"?>
<!-- Generator: Adobe Illustrator 13.0.0, SVG Export Plug-In . SVG Version: 6.00 Build 14948)  -->
<!DOCTYPE svg PUBLIC "-//W3C//DTD SVG 1.1//EN" "http://www.w3.org/Graphics/SVG/1.1/DTD/svg11.dtd">
<svg version="1.1" id="Calque_1" xmlns="http://www.w3.org/2000/svg" xmlns:xlink="http://www.w3.org/1999/xlink" x="0px" y="0px"
	 width="39px" height="18.8px" viewBox="0 0 39 18.8" enable-background="new 0 0 39 18.8" xml:space="preserve">
<g id="Calque_1_1_">
	<rect x="-0.167" y="-0.35" fill="none" width="40" height="20"/>
</g>
<g id="Calque_2">
	<path d="M2.168,18.069h-0.5l-0.002-0.997l0.5-0.002l0,0c0,0,9.498-0.012,11.084-0.012l0,0c0.041,0.039,0.772-0.381,1.537-1.139l0,0
		c1.196-1.121,2.757-2.84,4.25-4.287l0,0c1.527-1.434,2.845-2.654,4.129-2.714l0,0c2.418,0,13.486,0,13.5,0h0.501v1h-0.501V9.916
		l0,0c0,0-11.082,0-13.5,0l0,0c-0.75-0.093-2.992,1.879-4.911,3.92l0,0c-0.986,1.015-1.953,2.035-2.785,2.813l0,0
		c-0.865,0.769-1.449,1.347-2.22,1.407l0,0C11.668,18.056,2.179,18.068,2.168,18.069L2.168,18.069z"/>
</g>
<g id="Calque_2_1_">
	<path d="M36.666,9.917c0,0-11.083,0-13.5,0l0,0c-1.667-0.094-3.591-2.191-5.631-4.22l0,0c-0.99-1.022-1.953-2.035-2.75-2.783l0,0
		c-0.763-0.757-1.496-1.177-1.537-1.138l0,0c-1.584,0-11.082-0.01-11.082-0.01h-0.5V0.767h0.5l0,0c0.011,0,9.5,0.01,11.082,0.01l0,0
		c0.772,0.059,1.354,0.638,2.222,1.407l0,0c1.246,1.168,2.801,2.882,4.262,4.297l0,0c1.428,1.428,2.907,2.496,3.435,2.436l0,0
		c2.417,0,13.487,0,13.499,0h0.5v1H36.666L36.666,9.917z"/>
</g>
</svg>
